<?xml version="1.0" encoding="UTF-8" standalone="no"?>
        <svg 
    viewBox="10.3271484375 -85.83984375 446.4111328125 56.982421875"
    width="436.083984375"
    height="142.822265625"
   xmlns="http://www.w3.org/2000/svg"
   xmlns:svg="http://www.w3.org/2000/svg">
   <path d="M58.37-42.92L58.37-89.58L58.37-97.34L78.44-89.58L88.48-89.58L88.48-101.22L56.25-101.22Q52.22-94.41 47.02-86.50Q41.82-78.59 36.91-72.58L36.91-72.58Q46.00-66.87 51.27-58.89Q56.54-50.90 58.37-42.92L58.37-42.92ZM10.33 14.43L10.33-116.53L10.33-124.66L32.23-116.53L37.50-116.53L47.24-125.98L66.14-108.91Q64.45-106.79 59.40-106.79L59.40-106.79L58.67-105.47L88.48-105.47L88.48-126.93L114.33-124.37Q114.11-122.75 113.01-121.69Q111.91-120.63 108.76-120.12L108.76-120.12L108.76-105.47L118.95-105.47L129.27-119.53Q129.27-119.53 131.14-117.99Q133.01-116.46 135.90-114.00Q138.79-111.55 141.94-108.80Q145.09-106.05 147.58-103.64L147.58-103.64Q146.92-101.22 143.26-101.22L143.26-101.22L108.76-101.22L108.76-89.58L117.11-89.58L125.83-98.88L143.70-85.47Q143.04-84.74 141.72-83.94Q140.41-83.13 138.28-82.62L138.28-82.62L138.28-39.77Q138.21-39.26 135.50-38.16Q132.79-37.06 129.02-36.15Q125.24-35.23 122.09-35.23L122.09-35.23L118.65-35.23L118.65-43.07L109.94-43.07Q113.96-34.42 120.45-28.56Q126.93-22.71 134.40-19.04Q141.87-15.38 148.97-13.33L148.97-13.33L148.68-12.01Q142.82-10.18 138.87-4.76Q134.91 0.66 133.37 8.13L133.37 8.13Q126.78 2.05 122.06-4.91Q117.33-11.87 114.11-20.73Q110.89-29.59 108.76-41.53L108.76-41.53L108.76 7.03Q108.76 8.13 106.27 9.78Q103.78 11.43 100.01 12.78Q96.24 14.14 92.43 14.14L92.43 14.14L88.48 14.14L88.48-19.63Q79.83-10.84 68.33-3.99Q56.84 2.86 42.77 7.98L42.77 7.98L41.53 6.30Q55.52-2.71 65.59-15.78Q75.66-28.86 81.15-43.07L81.15-43.07L77.56-43.07L77.56-39.62Q77.56-38.67 75.11-37.24Q72.66-35.82 68.88-34.72Q65.11-33.62 61.08-33.62L61.08-33.62L59.25-33.62Q59.03-23.00 53.98-16.66Q48.93-10.33 36.47-10.18L36.47-10.18Q36.47-14.36 35.93-19.26Q35.38-24.17 34.50-26.07L34.50-26.07Q33.40-28.27 30.32-29.74L30.32-29.74L30.32 8.13Q30.32 8.86 28.34 10.36Q26.37 11.87 22.71 13.15Q19.04 14.43 13.92 14.43L13.92 14.43L10.33 14.43ZM88.48-47.24L88.48-64.53L77.56-64.53L77.56-47.24L88.48-47.24ZM118.65-64.53L108.76-64.53L108.76-47.24L118.65-47.24L118.65-64.53ZM77.56-68.70L88.48-68.70L88.48-85.33L77.56-85.33L77.56-68.70ZM108.76-85.33L108.76-68.70L118.65-68.70L118.65-85.33L108.76-85.33ZM38.82-112.35L30.32-112.35L30.32-32.23L35.23-32.23Q37.13-32.23 38.23-33.03L38.23-33.03Q40.80-34.64 40.80-40.65L40.80-40.65Q40.80-48.41 39.11-56.73Q37.43-65.04 33.18-72.14L33.18-72.14Q34.20-77.20 35.34-84.30Q36.47-91.41 37.43-98.88Q38.38-106.35 38.82-112.35L38.82-112.35ZM178.78-56.25L180.03-56.98Q192.99-53.91 200.32-48.96Q207.64-44.02 210.39-38.49Q213.13-32.96 212.33-28.09Q211.52-23.22 208.23-20.21Q204.93-17.21 200.13-17.21Q195.34-17.21 190.21-21.61L190.21-21.61Q189.55-30.83 186.33-39.88Q183.11-48.93 178.78-56.25L178.78-56.25ZM158.42-62.26L157.18-66.43L234.74-66.43L234.74-93.31L261.77-90.89Q261.33-87.67 256.49-86.87L256.49-86.87L256.49-66.43L266.24-66.43L276.64-79.98Q276.64-79.98 278.54-78.48Q280.44-76.98 283.41-74.60Q286.38-72.22 289.60-69.58Q292.82-66.94 295.53-64.67L295.53-64.67Q294.87-62.26 291.14-62.26L291.14-62.26L256.49-62.26L256.49-10.33Q256.49-3.08 254.55 2.01Q252.61 7.10 246.57 10.14Q240.53 13.18 228.15 14.28L228.15 14.28Q227.56 8.94 226.57 5.24Q225.59 1.54 223.17-1.03L223.17-1.03Q220.75-3.52 217.24-5.35Q213.72-7.18 206.54-8.42L206.54-8.42L206.54-10.33Q206.54-10.33 209.77-10.14Q212.99-9.96 217.49-9.74Q222.00-9.52 225.95-9.34Q229.91-9.16 231.45-9.16L231.45-9.16Q234.74-9.16 234.74-11.87L234.74-11.87L234.74-62.26L158.42-62.26ZM174.76-113.96L174.76-113.96L176.37-113.96Q177.61-111.33 178.60-108.73Q179.59-106.13 180.32-103.64L180.32-103.64L214.53-103.64L214.53-128.25L242.43-126.27Q242.29-124.73 241.22-123.63Q240.16-122.53 237.01-121.95L237.01-121.95L237.01-103.64L267.92-103.64L278.39-114.18L296.56-97.05Q295.02-95.29 290.70-95.07L290.70-95.07Q286.08-91.04 279.13-86.35Q272.17-81.67 266.09-78.74L266.09-78.74L265.06-79.61Q266.16-83.79 267.22-89.25Q268.29-94.70 268.95-99.46L268.95-99.46L181.20-99.46Q182.67-90.82 180.54-84.70Q178.42-78.59 174.17-75.73L174.17-75.73Q171.39-73.90 167.87-73.94Q164.36-73.97 161.39-75.88Q158.42-77.78 157.18-81.45L157.18-81.45Q155.64-86.50 158.02-90.34Q160.40-94.19 164.72-96.31L164.72-96.31Q166.99-97.71 169.45-100.42Q171.90-103.13 173.47-106.64Q175.05-110.16 174.76-113.96ZM378.74-97.78L378.74-128.39L402.32-126.42Q402.10-125.10 401.18-124.11Q400.27-123.12 397.63-122.68L397.63-122.68L397.63-97.78L401.51-97.78Q403.71-103.78 405.43-111.40Q407.15-119.02 408.18-125.10L408.18-125.10L433.23-117.77Q432.71-116.38 431.40-115.61Q430.08-114.84 427.51-115.06L427.51-115.06Q423.49-111.04 417.26-106.35Q411.04-101.66 404.74-97.78L404.74-97.78L416.53-97.78L426.64-109.50Q426.64-109.50 429.79-107.30Q432.93-105.10 437.26-101.99Q441.58-98.88 445.17-96.02L445.17-96.02Q444.58-93.60 440.84-93.60L440.84-93.60L399.17-93.60L414.77-89.58Q413.96-86.50 409.20-86.72L409.20-86.72Q405.25-83.13 399.24-79.03Q393.24-74.93 387.16-71.56L387.16-71.56L408.76-71.56L419.09-83.86Q419.09-83.86 422.28-81.56Q425.46-79.25 429.86-75.95Q434.25-72.66 437.84-69.73L437.84-69.73Q437.18-67.38 433.67-67.38L433.67-67.38L385.33-67.38L385.33-54.27L405.18-54.27L414.92-65.99Q414.92-65.99 417.96-63.79Q421.00-61.60 425.21-58.48Q429.42-55.37 432.93-52.51L432.93-52.51Q432.28-50.10 428.69-50.10L428.69-50.10L385.33-50.10L385.33-35.52L413.67-35.52L424.37-48.49Q424.37-48.49 426.27-47.06Q428.17-45.63 431.18-43.40Q434.18-41.16 437.48-38.60Q440.77-36.04 443.55-33.76L443.55-33.76Q443.33-32.52 442.13-31.93Q440.92-31.35 439.38-31.35L439.38-31.35L391.04-31.35Q397.63-25.78 406.86-21.46Q416.09-17.14 426.38-14.17Q436.67-11.21 446.41-9.74L446.41-9.74L446.26-7.98Q440.77-6.59 436.82-1.98Q432.86 2.64 431.40 9.74L431.40 9.74Q415.87 3.59 404.81-6.67Q393.75-16.92 386.57-31.35L386.57-31.35L385.33-31.35L385.33 9.59Q385.25 10.40 380.60 12.41Q375.95 14.43 367.68 14.43L367.68 14.43L363.57 14.43L363.57-16.77Q352.81-8.13 338.38-1.54Q323.95 5.05 307.03 9.45L307.03 9.45L306.15 7.62Q320.43 0.59 331.93-9.92Q343.43-20.43 350.54-31.35L350.54-31.35L307.98-31.35L306.74-35.52L363.57-35.52L363.57-50.10L322.49-50.10L321.31-54.27L363.57-54.27L363.57-67.38L315.01-67.38L313.77-71.56L352.51-71.56Q349.66-72.29 347.39-74.41L347.39-74.41Q347.39-79.54 345.74-84.67Q344.09-89.79 341.82-93.60L341.82-93.60L307.32-93.60L306.15-97.78L333.47-97.78Q331.35-98.44 328.93-100.34L328.93-100.34Q329.08-106.57 326.70-112.72Q324.32-118.87 320.73-122.97L320.73-122.97L321.90-123.78Q333.62-122.53 339.51-118.91Q345.41-115.28 346.84-110.93Q348.27-106.57 346.44-102.87Q344.60-99.17 340.80-97.78L340.80-97.78L352.51-97.78L352.51-128.39L375.73-126.42Q375.66-125.10 374.67-124.11Q373.68-123.12 371.12-122.68L371.12-122.68L371.12-97.78L378.74-97.78ZM388.77-93.60L352.66-93.60Q359.69-91.41 362.88-88.15Q366.06-84.89 366.25-81.45Q366.43-78.00 364.49-75.29Q362.55-72.58 359.25-71.56L359.25-71.56L382.76-71.56Q384.59-76.39 386.21-82.40Q387.82-88.40 388.77-93.60L388.77-93.60Z"/>
    </svg>
        